<?xml version="1.0" encoding="utf-8"?>
<!-- Generator: Adobe Illustrator 25.1.0, SVG Export Plug-In . SVG Version: 6.00 Build 0)  -->
<svg version="1.1" id="Logo-fullcolor-tagline" xmlns="http://www.w3.org/2000/svg" xmlns:xlink="http://www.w3.org/1999/xlink"
	 x="0px" y="0px" viewBox="0 0 746.8780518 137.3335724" style="enable-background:new 0 0 746.8780518 137.3335724;"
	 xml:space="preserve">
<style type="text/css">
	.st0{fill:#00A799;}
</style>
<path id="Logo_type" class="st0" d="M173.0401917,108.2608261v-8.0581055
	c-5.2143555,6.3198242-14.2207031,9.9541016-24.1748047,9.9541016c-12.1665039,0-26.3867188-8.2163086-26.3867188-25.2807617
	c0-18.0126953,14.2202148-24.6489258,26.3867188-24.6489258c10.2700195,0,19.1186523,3.3183594,24.1748047,9.3227539v-9.6386719
	c0-7.7421875-6.6362305-12.7983398-16.7485352-12.7983398c-8.0585938,0-15.6425781,3.1601562-21.9628906,9.0063477
	l-7.9003906-14.0625c9.3222656-8.3740234,21.3310547-12.0083008,33.3393555-12.0083008
	c17.5385742,0,33.4970703,6.9521484,33.4970703,28.9150391v49.2973633H173.0401917z M173.0401917,89.9322128v-9.4804688
	c-3.3183594-4.4238281-9.6386719-6.7939453-16.1166992-6.7939453c-7.9003906,0-14.378418,4.2661133-14.378418,11.5341797
	c0,7.2685547,6.4780273,11.3764648,14.378418,11.3764648C163.4015198,96.5684433,169.7218323,94.3565292,173.0401917,89.9322128z
	 M224.8634338,98.4644394v38.869133h-20.0668945V31.9444199h20.0668945v9.6381836
	c5.8461914-7.4257812,14.2202148-11.5341797,23.5424805-11.5341797c19.5927734,0,33.8129883,14.5366211,33.8129883,39.9750977
	c0,25.4389648-14.2202148,40.1333008-33.8129883,40.1333008C239.3995667,110.1568222,231.1837463,106.36483,224.8634338,98.4644394z
	 M261.5206604,70.0235214c0-13.1142578-7.9003906-22.1206055-19.4345703-22.1206055
	c-6.4785156,0-13.746582,3.6342773-17.2226562,8.6904297v26.8608398c3.3178711,4.8979492,10.7441406,8.8481445,17.2226562,8.8481445
	C253.6202698,92.30233,261.5206604,83.2959824,261.5206604,70.0235214z M308.7599182,98.4644394v38.869133h-20.0668945V31.9444199
	h20.0668945v9.6381836c5.8461914-7.4257812,14.2202148-11.5341797,23.5424805-11.5341797
	c19.5927734,0,33.8129883,14.5366211,33.8129883,39.9750977c0,25.4389648-14.2202148,40.1333008-33.8129883,40.1333008
	C323.296051,110.1568222,315.0802307,106.36483,308.7599182,98.4644394z M345.4171448,70.0235214
	c0-13.1142578-7.9003906-22.1206055-19.4345703-22.1206055c-6.4785156,0-13.746582,3.6342773-17.2226562,8.6904297v26.8608398
	c3.3178711,4.8979492,10.7441406,8.8481445,17.2226562,8.8481445
	C337.5167542,92.30233,345.4171448,83.2959824,345.4171448,70.0235214z M372.5899963,108.2608261V2.8716655h20.0668945v105.3891602
	H372.5899963z M402.4508362,11.7198095c0-6.63623,5.3720703-11.8500977,11.8496094-11.8500977
	c6.6367188,0,12.0087891,5.2138672,12.0087891,11.8500977s-5.3720703,12.0083017-12.0087891,12.0083017
	C407.8229065,23.7281113,402.4508362,18.356041,402.4508362,11.7198095z M404.346344,108.2608261V31.9444199h20.0664062v76.3164062
	H404.346344z M443.8453674,89.1421738V49.4829941h-12.640625V31.9444199h12.640625V11.0879736h20.0664062v20.8564453h15.484375
	v17.5385742h-15.484375v34.2871094c0,4.8979492,2.5283203,8.5322266,6.9521484,8.5322266
	c3.0019531,0,5.8466797-1.105957,6.9521484-2.3701172l4.2666016,15.3266602
	c-3.0019531,2.6860352-8.3740234,4.8979492-16.7490234,4.8979492
	C451.2711487,110.1568222,443.8453674,102.8887558,443.8453674,89.1421738z M480.9742737,70.0235214
	c0-21.6464844,15.1689453-39.9750977,40.2920227-39.9750977c25.2802734,0,40.4492188,18.3286133,40.4492188,39.9750977
	c0,21.6469727-15.1689453,40.1333008-40.4492188,40.1333008C496.143219,110.1568222,480.9742737,91.6704941,480.9742737,70.0235214z
	 M540.8590698,70.0235214c0-11.8500977-6.953125-22.1206055-19.5927734-22.1206055
	c-12.4824524,0-19.4346008,10.2705078-19.4346008,22.1206055c0,12.0083008,6.9521484,22.2788086,19.4346008,22.2788086
	C533.9059448,92.30233,540.8590698,82.0318222,540.8590698,70.0235214z M565.6618042,70.0235214
	c0-21.6464844,15.1689453-39.9750977,40.2919922-39.9750977c25.2802734,0,40.4492188,18.3286133,40.4492188,39.9750977
	c0,21.6469727-15.1689453,40.1333008-40.4492188,40.1333008C580.8307495,110.1568222,565.6618042,91.6704941,565.6618042,70.0235214
	z M625.5465698,70.0235214c0-11.8500977-6.953125-22.1206055-19.5927734-22.1206055
	c-12.4824219,0-19.4345703,10.2705078-19.4345703,22.1206055c0,12.0083008,6.9521484,22.2788086,19.4345703,22.2788086
	C618.5934448,92.30233,625.5465698,82.0318222,625.5465698,70.0235214z M653.1940308,108.2608261V2.8716655h20.0664062v105.3891602
	H653.1940308z M678.3141479,98.3067245l8.6904297-14.5366211c5.6875,5.3720703,16.90625,10.5864258,26.3867188,10.5864258
	c8.6894531,0,12.7978516-3.3183594,12.7978516-8.0585938c0-12.4819336-45.1894531-2.2119141-45.1894531-32.2329102
	c0-12.7983398,11.0605469-24.0166016,31.2851562-24.0166016c12.7988281,0,23.0683594,4.4243164,30.6533203,10.4282227
	l-8.0585938,14.2207031c-4.5820312-4.7402344-13.2724609-8.8486328-22.5947266-8.8486328
	c-7.2685547,0-12.0078125,3.1601562-12.0078125,7.4262695c0,11.21875,45.3466797,1.7382812,45.3466797,32.5493164
	c0,14.0625-12.0078125,24.3325195-33.1806641,24.3325195C699.1705933,110.1568222,686.3717651,105.7329941,678.3141479,98.3067245z"
	/>
<path id="Logo_graphic" class="st0" d="M86.3414612,36.3779449V18.6399326
	C79.692131,24.513525,73.3088226,29.72686,67.2307129,34.3624268C60.3941345,23.9292068,51.6597366,16.564558,40.1688271,11.4146338
	c9.00877,7.9850035,15.1938553,16.9780502,19.866333,28.2739792C23.8279934,65.6620255,0.2529404,70.1646347,0.2529404,70.1646347
	s23.5750523,4.5026093,59.7822189,30.4760208c-4.6724777,11.295929-10.857563,20.2889786-19.866333,28.2739716
	c11.4909096-5.1499176,20.2253075-12.5145645,27.0618858-22.9477844c6.0781097,4.6355667,12.4614182,9.8488998,19.1107483,15.722496
	v-17.7380142c0,0-2.1683273-3.609375-12.5416336-10.9836121c2.6420593-7.1008453,4.0949631-14.7805405,4.0949631-22.8030777
	s-1.4529037-15.7022324-4.0949631-22.8030777C84.1731339,39.9873199,86.3414612,36.3779449,86.3414612,36.3779449z
	 M66.0694504,70.1646347c0,5.6714478-0.5981369,11.2022018-1.7231064,16.5386505
	c-7.3433037-4.5789566-17.055172-10.0848618-29.8671608-16.5386505
	C47.291172,63.7108498,57.0030403,58.2049408,64.346344,53.6259842
	C65.4713135,58.9624825,66.0694504,64.493187,66.0694504,70.1646347z"/>
</svg>
