<?xml version="1.0" encoding="utf-8"?>
<!-- Generator: Adobe Illustrator 25.1.0, SVG Export Plug-In . SVG Version: 6.00 Build 0)  -->
<svg version="1.1" id="logo-bug-1color-circle-color"
	 xmlns="http://www.w3.org/2000/svg" xmlns:xlink="http://www.w3.org/1999/xlink" x="0px" y="0px"
	 viewBox="0 0 139.8800049 139.8780518" style="enable-background:new 0 0 139.8800049 139.8780518;" xml:space="preserve">
<style type="text/css">
	.st0{fill:#00A799;}
</style>
<g>
	<path class="st0" d="M53.2045021,70.9390259c11.2391319,5.661499,19.7587852,10.4914551,26.2005577,14.5083008
		c0.9868164-4.6813354,1.5115967-9.5331421,1.5115967-14.5083008c0-4.9752197-0.5247803-9.8269615-1.5115967-14.508297
		C72.9632874,60.4475136,64.443634,65.2775269,53.2045021,70.9390259z"/>
	<path class="st0" d="M70.1902161,1.9292624c-37.2792931,0-67.5,30.2207661-67.5,67.5c0,37.2791748,30.2207031,67.5,67.5,67.5
		s67.5-30.2208252,67.5-67.5C137.6902161,32.1500282,107.4695129,1.9292624,70.1902161,1.9292624z M98.6999817,41.3001137
		c0,0-1.9020996,3.1662598-11.0019531,9.6351929c2.317627,6.229126,3.5922852,12.9660645,3.5922852,20.0037193
		S90.0156555,84.713562,87.6980286,90.942688c9.0998535,6.4689331,11.0019531,9.6352539,11.0019531,9.6352539v15.5604248
		c-5.8330078-5.1525269-11.4326172-9.7258911-16.7646484-13.7923584
		c-5.9973145,9.1524048-13.6594238,15.6129761-23.7397423,20.1306763
		c7.9028282-7.0047607,13.3286095-14.8937988,17.4274864-24.8029785
		C43.8608742,74.888855,23.179966,70.9390259,23.179966,70.9390259s20.6809082-3.9498901,52.4431114-26.7346764
		c-4.098877-9.9092407-9.5246582-17.7982807-17.4274864-24.8029804
		c10.0803185,4.5177002,17.7424278,10.9782104,23.7397423,20.1306171
		c5.3320312-4.0664673,10.9316406-8.6397724,16.7646484-13.7923603V41.3001137z"/>
</g>
</svg>
